<svg xmlns="http://www.w3.org/2000/svg" viewBox="0 0 1200 800" width="1200" height="800">
  <defs>
    <linearGradient id="bg" x1="0" x2="0" y1="0" y2="1">
      <stop offset="0%" stop-color="#1e3a8a" />
      <stop offset="100%" stop-color="#3b82f6" />
    </linearGradient>
    <linearGradient id="glass" x1="0" x2="1">
      <stop offset="0%" stop-color="#dbeafe" />
      <stop offset="100%" stop-color="#93c5fd" />
    </linearGradient>
  </defs>
  <rect width="1200" height="800" fill="url(#bg)" />
  <g transform="translate(120 100)">
    <rect x="0" y="160" width="220" height="540" rx="20" fill="#0f172a" />
    <rect x="240" y="80" width="220" height="620" rx="20" fill="#111827" />
    <rect x="480" y="240" width="220" height="460" rx="20" fill="#1f2937" />
    <rect x="720" y="120" width="220" height="580" rx="20" fill="#111827" />
    <rect x="960" y="200" width="220" height="500" rx="20" fill="#0f172a" />
    <g fill="url(#glass)">
      <rect x="20" y="200" width="30" height="60" rx="5" />
      <rect x="60" y="200" width="30" height="60" rx="5" />
      <rect x="100" y="200" width="30" height="60" rx="5" />
      <rect x="140" y="200" width="30" height="60" rx="5" />
      <rect x="180" y="200" width="30" height="60" rx="5" />
    </g>
  </g>
  <text x="600" y="700" fill="#ffffff" font-family="Arial, Helvetica, sans-serif" font-size="54" font-weight="700" text-anchor="middle">Building Dummy Image</text>
  <text x="600" y="760" fill="#c7d2fe" font-family="Arial, Helvetica, sans-serif" font-size="24" text-anchor="middle">Use this placeholder for office building visuals</text>
</svg>
